<svg xmlns="http://www.w3.org/2000/svg" viewBox="0 0 400 300" data-imageid="vr-flatline" imageName="VR" class="illustrations_image" style="width: 187px;"><g id="_26" data-name="#26"><path d="M170.74,154.3C136,175,99.38,265.11,99.38,265.11l172.51-.91s39.34-94.36,24.75-109.58S185.43,145.55,170.74,154.3Z" fill="#18181c" class="target-color"/><path d="M141.91,262.75a.51.51,0,0,1-.24-.07.49.49,0,0,1-.2-.67c.8-1.45,6-12.54,12.49-26.57,20.78-44.69,30.89-66.06,32.09-66.66a.51.51,0,0,1,.67.22.5.5,0,0,1-.23.67c-1.52,1.45-19.64,40.41-31.63,66.19-6.54,14-11.7,25.15-12.52,26.63A.51.51,0,0,1,141.91,262.75Z" fill="#231f20"/><path d="M213,155.67s-10,27.6-1,34.73,38.86-24.5,42.52-45.66S213,155.67,213,155.67Z" fill="#231f20"/><path d="M215.21,191.93a5.48,5.48,0,0,1-3.51-1.14c-9.19-7.27.38-34.15.8-35.29a.43.43,0,0,1,.18-.24c1.3-.93,32.1-22.65,40.43-17.4,1.86,1.17,2.5,3.51,1.91,7-3,17.31-23.33,41.5-35.76,46.25A11.57,11.57,0,0,1,215.21,191.93Zm-1.83-36c-.76,2.17-9.36,27.46-1.06,34,1.49,1.19,3.71,1.23,6.58.13,12.22-4.67,32.2-28.46,35.14-45.49.52-3,0-5-1.46-6-3.16-2-10.94.35-22.48,6.78C221.89,150.06,214.44,155.24,213.38,156Z" fill="#231f20"/><path d="M212,132.28l1,23.39s8.66,13.5,23.2,8.16a30.85,30.85,0,0,0,18.36-19.09l-5.05-42.18s-11.77-4.64-11.29-29.09A74.62,74.62,0,0,1,200,83.36s-3.77,26.9-.63,38.28S212,132.28,212,132.28Z" fill="#fff"/><path d="M229.51,165.57c-10.64,0-16.89-9.52-17-9.63a.55.55,0,0,1-.07-.25l-1-22.9c-2.08,0-9.86-.93-12.64-11-3.14-11.35.46-37.38.61-38.48a.53.53,0,0,1,.5-.43,74.64,74.64,0,0,0,38-9.81.5.5,0,0,1,.78.43C238.44,85.92,241.45,93,244,96.83c2.76,4.07,5.62,5.25,5.65,5.26a.51.51,0,0,1,.31.41l5,42.18a.41.41,0,0,1,0,.19c0,.14-4,14.06-18.67,19.43A19.61,19.61,0,0,1,229.51,165.57Zm-16-10.06c.9,1.35,9.08,12.8,22.54,7.85s17.65-17.47,18-18.67l-5-41.79c-1.83-.88-11.52-6.57-11.35-28.54a76.82,76.82,0,0,1-36.89,9.5h-.4c-.46,3.51-3.44,27.28-.58,37.64,3,10.83,11.74,10.31,12.12,10.28a.56.56,0,0,1,.37.13.53.53,0,0,1,.17.35Z" fill="#231f20"/><path d="M243.8,102.2a9.86,9.86,0,0,1,2.71-5.61,17.61,17.61,0,0,1,4.94-3.24,7.29,7.29,0,0,1,3.09-.93,5.87,5.87,0,0,1,2.21.53,7.55,7.55,0,0,1,4.05,3.37,8.87,8.87,0,0,1,.68,4.25,17.59,17.59,0,0,1-.62,4.68,11.94,11.94,0,0,1-15,8" fill="#fff"/><path d="M249.42,114.27a12.08,12.08,0,0,1-3.68-.56.48.48,0,0,1-.33-.62.49.49,0,0,1,.62-.33,11.43,11.43,0,0,0,14.35-7.65,17.39,17.39,0,0,0,.6-4.56,8.52,8.52,0,0,0-.63-4,7.22,7.22,0,0,0-3.79-3.13,5.25,5.25,0,0,0-2-.49h0a6.82,6.82,0,0,0-2.86.88,17,17,0,0,0-4.8,3.14,9.3,9.3,0,0,0-2.57,5.32.5.5,0,0,1-.56.44.51.51,0,0,1-.44-.56,10.42,10.42,0,0,1,2.85-5.9,18.06,18.06,0,0,1,5.08-3.34,8.05,8.05,0,0,1,3.31-1,6.47,6.47,0,0,1,2.41.57,8.07,8.07,0,0,1,4.3,3.6,9.42,9.42,0,0,1,.73,4.49,18.07,18.07,0,0,1-.64,4.81,12.38,12.38,0,0,1-11.92,8.88Z" fill="#231f20"/><path d="M215.21,110.78a4.72,4.72,0,0,1-3.26-1c-2.15-2,3.13-11.88,4.8-14.87a.5.5,0,0,1,.68-.19.5.5,0,0,1,.19.68c-3.24,5.79-6.07,12.65-5,13.65,1.48,1.38,5.3.48,6.65,0a.51.51,0,0,1,.64.31.5.5,0,0,1-.31.63A15.16,15.16,0,0,1,215.21,110.78Z" fill="#231f20"/><path d="M244.53,68.89s12,3.91,25.9,17.65l-1.91,7.61S258,80.69,245,76.08Z" fill="#231f20"/><path d="M268.52,94.65a.51.51,0,0,1-.39-.19c-.1-.14-10.55-13.41-23.34-17.92a.51.51,0,0,1-.34-.44L244,68.92a.5.5,0,0,1,.65-.51c.12,0,12.24,4.12,26.1,17.78a.5.5,0,0,1,.13.47L269,94.27a.51.51,0,0,1-.38.37ZM245.43,75.72c11.11,4,20.4,14.43,22.85,17.35l1.6-6.37c-11.71-11.48-22.08-16-24.81-17.08Z" fill="#231f20"/><path d="M173.6,99.44S195.16,110,197.49,110s11.84-.64,12.68-2.75-1.27-3.17,1.27-3.59,5.29,2.74,9.09,2.74,26-4.86,30-8.88,4.87-26.42,2.12-30.86-13.85-14.91-19.24-15.86c-5-.88-51.17,10.57-57.93,15.65S169.37,91.83,173.6,99.44Z" fill="#fff"/><path d="M197.49,110.51c-2.38,0-21.9-9.54-24.11-10.62a.5.5,0,0,1-.22-.21c-4.38-7.88-4.84-28.47,2-33.63,6.55-4.91,53-16.68,58.32-15.73,5.57,1,16.83,11.65,19.57,16.08,1.55,2.5,1.9,9.78,1.56,15.89-.17,2.94-.92,12.78-3.74,15.6-4.28,4.28-26.85,9-30.38,9a11.79,11.79,0,0,1-5.37-1.65c-1.38-.69-2.57-1.28-3.64-1.1-.72.12-.85.26-.86.29s0,.36.07.58a3.76,3.76,0,0,1-.09,2.42C209.5,110.28,197.61,110.51,197.49,110.51ZM174,99.06c8.63,4.23,21.91,10.45,23.53,10.45,3.86,0,11.62-1,12.22-2.44a2.78,2.78,0,0,0,0-1.82,1.7,1.7,0,0,1,.07-1.36,2.18,2.18,0,0,1,1.54-.72c1.39-.23,2.78.46,4.24,1.2a11,11,0,0,0,4.93,1.54c3.69,0,25.74-4.8,29.67-8.73s4.68-26,2-30.25S238.5,52.21,233.34,51.3,182.27,62,175.8,66.86,169.9,91.53,174,99.06Z" fill="#231f20"/><path d="M232,50.81c-9.52.85-52,9.3-58,13.43s-6.34,31.71-.31,35.2,55.81-6.35,64.06-14.27S241.46,50,232,50.81Z" fill="#fff"/><path d="M178.66,100.67c-2.49,0-4.36-.25-5.31-.8-2.57-1.49-4.28-7.06-4.58-14.91-.32-8.63,1.24-18.66,4.86-21.14,6.05-4.14,48.31-12.62,58.27-13.51,3-.25,5.76,2,7.76,6.42,4.85,10.65,3.09,24.23-1.66,28.8-4.46,4.29-20,8.77-33.1,11.54C195.37,99.09,185,100.67,178.66,100.67ZM232,50.81l0,.5c-9.16.81-51.89,9.3-57.79,13.34-2.89,2-4.79,10.69-4.43,20.28.28,7.39,1.84,12.78,4.08,14.07,2.65,1.54,15.62.32,30.84-2.91,16.27-3.44,29.07-7.87,32.62-11.28,5.41-5.2,5.21-19.39,1.44-27.67-1.05-2.31-3.33-6.15-6.76-5.83Z" fill="#231f20"/><line x1="240.41" y1="86.75" x2="249.5" y2="95.42" fill="#fff"/><path d="M249.5,95.92a.52.52,0,0,1-.35-.14l-9.09-8.67a.49.49,0,0,1,0-.7.5.5,0,0,1,.71,0l9.09,8.67a.49.49,0,0,1,0,.7A.48.48,0,0,1,249.5,95.92Z" fill="#231f20"/><path d="M176.13,68.78c-3,3-3,17.76-.21,23.47s52.43-5.71,58.35-11.42,2.33-20.51-2.11-24.1S179.09,65.82,176.13,68.78Z" fill="#fff"/><path d="M182,94.31a21.27,21.27,0,0,1-3.65-.27c-1.58-.28-2.53-.8-2.91-1.57-2.72-5.66-3-20.74.31-24,1.7-1.7,15.41-5.72,27.7-8.62,7.74-1.83,26.07-5.83,29-3.47s5.13,8.51,5.38,14.27c.21,4.62-.94,8.38-3.23,10.58-3.06,3-16,6.75-26.08,9.11C199.66,92.38,188.83,94.31,182,94.31Zm47-37.69c-11.24,0-49.71,9.7-52.52,12.51s-2.82,17.3-.12,22.9c.22.45,1,.82,2.19,1,10.86,2,50.34-7.74,55.37-12.59,2.07-2,3.11-5.49,2.93-9.82-.24-5.51-2.44-11.45-5-13.53A5.24,5.24,0,0,0,229,56.62Z" fill="#231f20"/><path d="M313,242a29.77,29.77,0,0,1-22.24-9.52.49.49,0,0,1,0-.7.5.5,0,0,1,.71,0,29.09,29.09,0,0,0,24.1,9.09,30.17,30.17,0,0,0,22.85-13.1c4.07-6.22,6.07-14.31,6.13-24.74.05-9.78-1.64-23.72-10-34.61a60.31,60.31,0,0,0-8.13-8.08c-5.89-5.2-12-10.56-12.83-18.76a31.14,31.14,0,0,1,0-4.83,25.08,25.08,0,0,0-.07-5.41c-.9-5.57-5.8-10.54-13.1-13.28a77.43,77.43,0,0,0-9.38-2.65,75.12,75.12,0,0,1-9.93-2.84c-7.62-3-12.62-8.35-13.37-14.37a.5.5,0,0,1,.44-.56.49.49,0,0,1,.55.43c.83,6.66,7.13,11.38,12.74,13.56a75.38,75.38,0,0,0,9.8,2.81,79.12,79.12,0,0,1,9.5,2.68c7.65,2.87,12.78,8.13,13.74,14.06a25.89,25.89,0,0,1,.08,5.63,29.13,29.13,0,0,0,0,4.67c.79,7.8,6.74,13,12.5,18.11a62.23,62.23,0,0,1,8.25,8.22c8.54,11.11,10.27,25.29,10.22,35.23-.06,10.63-2.12,18.89-6.3,25.28a31.13,31.13,0,0,1-23.6,13.54C314.75,242,313.86,242,313,242Z" fill="#231f20"/><path d="M242.56,237.44c-7.15-15.26-71-73.93-76.08-81.54s-3.81-11.89-12.06-17.28-21.08-14.91-23-13.8-2.22,5.39-.63,7.93,6.82,5.71,8.24,8.25,1.43,3.33,1.43,3.33-23-5.39-26.16-8.57-7.77-14.42-10.94-16a11.28,11.28,0,0,0-6.5-1s-3.33-4.28-5.55-2.54c-1.48,1.16-1.24,3.16-.32,4.59-2.54-1.76-1.69,2.45-1.5,3.64a48.7,48.7,0,0,0,46,40.36c3.93.14,9.55-.73,12.38,2.45,2.46,2.76,3.24,6.91,4.92,10.13q3.57,6.85,7.29,13.65c6.16,11.25,12.59,22.38,19.51,33.18,7.58,11.81,15.83,25.1,27.18,33.69C230.25,275.71,249.72,252.71,242.56,237.44Z" fill="#fff"/><path d="M223.81,264.9c-5.6,0-11.57-2.19-17.33-6.55-10.94-8.28-19.11-21-26.32-32.3l-1-1.52c-6.2-9.67-12.59-20.53-19.53-33.21-2.44-4.47-4.9-9.07-7.3-13.66a36.87,36.87,0,0,1-1.61-3.81,20,20,0,0,0-3.23-6.22c-2.12-2.38-6-2.33-9.5-2.28-.89,0-1.74,0-2.53,0A49,49,0,0,1,89,124.57l0-.21c-.3-1.75-.55-3.66.41-4.27a1.15,1.15,0,0,1,.62-.16,3.52,3.52,0,0,1,1-4.06,2.43,2.43,0,0,1,1.85-.51c1.81.23,3.63,2.21,4.21,2.9a11.78,11.78,0,0,1,6.52,1c1.92,1,4.1,4.82,6.41,8.9,1.63,2.88,3.32,5.87,4.66,7.21,2.35,2.35,17,6.3,25.11,8.24a17.7,17.7,0,0,0-1.16-2.41,20.1,20.1,0,0,0-4.09-4.1,21.8,21.8,0,0,1-4.15-4.12,8.34,8.34,0,0,1-.87-6,4,4,0,0,1,1.68-2.6c1.55-.91,6.64,2.35,17.08,9.47,2.3,1.57,4.48,3.06,6.44,4.34,5.48,3.58,6.83,6.65,8.55,10.53a43.14,43.14,0,0,0,3.64,6.89c1.8,2.7,11.57,12.38,22.87,23.58,20.53,20.33,48.64,48.18,53.25,58h0c3.54,7.54.88,17.24-6.32,23.07A20.12,20.12,0,0,1,223.81,264.9ZM139.52,164.34c3.26,0,6.65.28,8.73,2.63a20.53,20.53,0,0,1,3.42,6.52,36.28,36.28,0,0,0,1.57,3.71c2.4,4.59,4.85,9.18,7.29,13.64,6.93,12.66,13.31,23.5,19.49,33.15l1,1.52c7.17,11.19,15.29,23.87,26.09,32,10.16,7.7,21,8.43,29,2,6.85-5.54,9.39-14.74,6.05-21.87h0c-4.54-9.69-32.58-37.46-53.05-57.74-11.81-11.7-21.15-20.95-23-23.73a43.47,43.47,0,0,1-3.72-7c-1.65-3.73-3-6.68-8.19-10.1-2-1.29-4.15-2.78-6.46-4.35-5.9-4-14.83-10.11-16-9.44a3.11,3.11,0,0,0-1.21,2,7.25,7.25,0,0,0,.75,5.26,21.44,21.44,0,0,0,3.95,3.89,20.2,20.2,0,0,1,4.31,4.37c1.42,2.53,1.49,3.42,1.49,3.58a.51.51,0,0,1-.19.39.49.49,0,0,1-.42.09c-1-.22-23.17-5.46-26.41-8.69-1.43-1.44-3.08-4.35-4.82-7.43-2-3.6-4.34-7.67-6-8.49a10.85,10.85,0,0,0-6.18-.91.54.54,0,0,1-.49-.18c-.55-.71-2.29-2.58-3.74-2.75a1.46,1.46,0,0,0-1.11.29c-1.24,1-1,2.68-.2,3.93a.5.5,0,0,1-.08.63.49.49,0,0,1-.63.05c-.51-.35-.74-.35-.79-.32s-.42.58,0,3.25l0,.22a48,48,0,0,0,45.52,39.94c.77,0,1.61,0,2.47,0Z" fill="#231f20"/><circle cx="114.29" cy="85.28" r="25" fill="#fff"/><path d="M114.29,110.78a25.5,25.5,0,1,1,25.5-25.5A25.52,25.52,0,0,1,114.29,110.78Zm0-50a24.5,24.5,0,1,0,24.5,24.5A24.52,24.52,0,0,0,114.29,60.78Z" fill="#d1d3d4"/><path d="M75.22,105.39c-2.82,0-4.9-.51-5.43-1.89-1.6-4.2,13.12-12.08,19.52-15.27a.5.5,0,1,1,.45.89c-14.15,7.06-19.75,12.13-19,14s8.52,2,24.24-2.33c7-1.92,14.65-4.46,22.25-7.36,7.8-3,15.35-6.22,21.83-9.44,14.39-7.14,20.1-12.27,19.36-14.19s-8.16-2-23.2,2.05a.49.49,0,0,1-.61-.35.48.48,0,0,1,.35-.61c6.81-1.82,22.82-5.61,24.4-1.44S146,81.68,139.49,84.91s-14.08,6.51-21.91,9.48c-7.63,2.9-15.36,5.46-22.35,7.38C90.41,103.09,81.17,105.39,75.22,105.39Z" fill="#d1d3d4"/><path d="M96.87,118.8s2.34,12.74,11.88,21.33" fill="#fff"/><path d="M108.75,140.62a.5.5,0,0,1-.33-.12c-9.56-8.6-12-21.48-12-21.61a.5.5,0,0,1,1-.18c0,.12,2.43,12.68,11.73,21a.5.5,0,0,1,0,.71A.47.47,0,0,1,108.75,140.62Z" fill="#231f20"/><path d="M91,120.85s7.5,18.32,14.18,21.66" fill="#fff"/><path d="M105.17,143a.59.59,0,0,1-.22,0C98.18,139.57,90.84,121.8,90.53,121a.5.5,0,0,1,.93-.38c.07.19,7.5,18.19,13.94,21.4a.5.5,0,0,1-.23.95Z" fill="#231f20"/><path d="M232.07,224.1a.46.46,0,0,1-.28-.08.49.49,0,0,1-.13-.69c.17-.26,17.32-25.58,31.45-52.43a.5.5,0,0,1,.67-.21.49.49,0,0,1,.21.67c-14.16,26.91-31.34,52.27-31.51,52.53A.49.49,0,0,1,232.07,224.1Z" fill="#231f20"/><path d="M268.53,83.69a.52.52,0,0,1-.33-.12.51.51,0,0,1-.05-.71,31.81,31.81,0,0,0,7.21-25.33,21.53,21.53,0,0,0-4.67-10.87c-3.11-3.59-8-5.95-13.77-6.64-5.44-.64-11,.19-15.78,1l-.48.09c-4.11.71-8.37,1.45-12.43.29a27.15,27.15,0,0,1-5.73-2.65,38.42,38.42,0,0,0-3.89-2A20,20,0,0,0,199.93,39a22.3,22.3,0,0,0-9.23,16.65.5.5,0,1,1-1-.07,23.3,23.3,0,0,1,9.64-17.4A21,21,0,0,1,219,35.86a36.42,36.42,0,0,1,4,2,27.07,27.07,0,0,0,5.52,2.56c3.84,1.09,8,.38,12-.32l.48-.08c4.85-.84,10.5-1.68,16.06-1,6,.72,11.14,3.19,14.42,7a22.56,22.56,0,0,1,4.9,11.38,32.84,32.84,0,0,1-7.44,26.13A.49.49,0,0,1,268.53,83.69Z" fill="#231f20"/><path d="M217.75,123.8a8.14,8.14,0,0,1-4.44-1.27c-4.22-2.67-5.49-8.55-5.55-8.8a.5.5,0,0,1,1-.2s1.25,5.72,5.11,8.16a7.69,7.69,0,0,0,6.11.84c8.88-2.13,8.82-13.1,8.82-13.21a.5.5,0,0,1,.49-.51h0a.51.51,0,0,1,.5.49c0,.12.08,11.88-9.59,14.2A10.5,10.5,0,0,1,217.75,123.8Z" fill="#231f20"/><path d="M212,132.28s14.5.31,23.32-11.14c0,0-4.5,23.27-22.71,25.15Z" fill="#231f20"/><path d="M212.57,146.79a.5.5,0,0,1-.33-.12.53.53,0,0,1-.17-.36l-.61-14a.45.45,0,0,1,.14-.36.58.58,0,0,1,.37-.15c.15,0,14.36.15,22.92-11a.5.5,0,0,1,.88.4c-.05.24-4.79,23.66-23.15,25.56Zm-.09-14,.56,13c14.06-1.81,19.64-17,21.23-22.62C226.35,131.82,215,132.69,212.48,132.77Z" fill="#231f20"/><path d="M246.36,262.23a.5.5,0,0,1-.35-.86c.24-.23,24.34-23.94,39.89-53.93a.49.49,0,0,1,.67-.21.5.5,0,0,1,.21.67c-15.62,30.13-39.83,54-40.08,54.19A.49.49,0,0,1,246.36,262.23Z" fill="#231f20"/><path d="M185.54,83.16a.56.56,0,0,1-.32-.11.52.52,0,0,1-.07-.71c4.86-6,12.23-15.12,12.59-15.91a.5.5,0,0,1,.63-.31.52.52,0,0,1,.31.65c-.28.86-9.83,12.62-12.75,16.2A.49.49,0,0,1,185.54,83.16Z" fill="#d1d3d4"/><path d="M203.28,84.85a.48.48,0,0,1-.36-.16.49.49,0,0,1,0-.7l20.84-20a.48.48,0,0,1,.7,0,.5.5,0,0,1,0,.71l-20.84,20A.49.49,0,0,1,203.28,84.85Z" fill="#d1d3d4"/><circle cx="68.41" cy="127.43" r="6.48" fill="#fff"/><path d="M68.41,134.4a7,7,0,1,1,7-7A7,7,0,0,1,68.41,134.4Zm0-13a6,6,0,1,0,6,6A6,6,0,0,0,68.41,121.45Z" fill="#d1d3d4"/><polygon points="63.09 68.35 64.94 74.64 71.23 76.49 64.94 78.34 63.09 84.63 61.24 78.34 54.95 76.49 61.24 74.64 63.09 68.35" fill="#d1d3d4"/><polygon points="156.28 104.06 157.6 108.53 162.08 109.85 157.6 111.16 156.28 115.64 154.97 111.16 150.49 109.85 154.97 108.53 156.28 104.06" fill="#d1d3d4"/><polygon points="80.05 49.09 81.36 53.56 85.84 54.88 81.36 56.19 80.05 60.67 78.73 56.19 74.26 54.88 78.73 53.56 80.05 49.09" fill="#fff"/><path d="M80.05,61.17h0a.5.5,0,0,1-.48-.36l-1.24-4.22-4.21-1.23a.5.5,0,0,1-.36-.48.49.49,0,0,1,.36-.48l4.21-1.24,1.24-4.22a.52.52,0,0,1,1,0l1.24,4.22L86,54.4a.5.5,0,0,1,.36.48.51.51,0,0,1-.36.48l-4.21,1.23-1.24,4.22A.51.51,0,0,1,80.05,61.17Zm-4-6.29,2.84.83a.49.49,0,0,1,.34.34l.84,2.84.83-2.84a.52.52,0,0,1,.34-.34l2.85-.83L81.22,54a.5.5,0,0,1-.34-.34l-.83-2.84-.84,2.84a.47.47,0,0,1-.34.34Z" fill="#d1d3d4"/><circle cx="142.18" cy="45.12" r="2.25" fill="#d1d3d4"/><path d="M110.08,64.64S100,67.08,96.75,75" fill="#fff"/><path d="M96.75,75.46a.57.57,0,0,1-.18,0,.51.51,0,0,1-.28-.66c3.25-8,13.25-10.52,13.67-10.62a.51.51,0,0,1,.61.37.5.5,0,0,1-.37.6c-.1,0-9.93,2.48-13,10A.51.51,0,0,1,96.75,75.46Z" fill="#d1d3d4"/><path d="M183.83,148.77c-3.24,0-6.18-2.69-7.81-5.65A23.64,23.64,0,0,1,175,123.81a32,32,0,0,1,12.37-15.08.49.49,0,0,1,.69.13.51.51,0,0,1-.14.7,31,31,0,0,0-12,14.6,22.6,22.6,0,0,0,1,18.48c1.66,3,4.76,5.73,8,5a.5.5,0,0,1,.6.38.51.51,0,0,1-.38.59A5.53,5.53,0,0,1,183.83,148.77Z" fill="#231f20"/></g></svg>